<?xml version="1.0" standalone="no"?>
<svg xmlns="http://www.w3.org/2000/svg" xmlns:xlink="http://www.w3.org/1999/xlink" width="458pt" height="485pt" viewBox="0.00 0.00 458.05 485.00">
<g id="graph0" class="graph" transform="translate(4,481) scale(1)" data-name="G">

<polygon fill="#2e3e56" stroke="none" points="-4,4 -4,-481 454.05,-481 454.05,4 -4,4" style=""/>
<g id="clust1" class="cluster" data-name="clusterORMakerV1Factory">

<path fill="#445773" stroke="#445773" d="M20,-93C20,-93 430.05,-93 430.05,-93 436.05,-93 442.05,-99 442.05,-105 442.05,-105 442.05,-320 442.05,-320 442.05,-326 436.05,-332 430.05,-332 430.05,-332 20,-332 20,-332 14,-332 8,-326 8,-320 8,-320 8,-105 8,-105 8,-99 14,-93 20,-93" style=""/>
<text text-anchor="middle" x="225.03" y="-315.4" font-family="Times,serif" font-size="14.00" fill="#f0f0f0" style="">ORMakerV1Factory</text>
</g>
<g id="clust2" class="cluster" data-name="clusterORMakerDeposit">

<path fill="#3b4b63" stroke="#e8726d" stroke-dasharray="5,2" d="M284.33,-8C284.33,-8 374.98,-8 374.98,-8 380.98,-8 386.98,-14 386.98,-20 386.98,-20 386.98,-73 386.98,-73 386.98,-79 380.98,-85 374.98,-85 374.98,-85 284.33,-85 284.33,-85 278.33,-85 272.33,-79 272.33,-73 272.33,-73 272.33,-20 272.33,-20 272.33,-14 278.33,-8 284.33,-8" style=""/>
<text text-anchor="middle" x="329.65" y="-68.4" font-family="Times,serif" font-size="14.00" fill="#f0f0f0" style="">ORMakerDeposit</text>
</g>
<g id="clust3" class="cluster" data-name="cluster_01">

<polygon fill="#2e3e56" stroke="black" points="29.13,-340 29.13,-469 364.15,-469 364.15,-340 29.13,-340" style=""/>
<text text-anchor="middle" x="196.64" y="-452.4" font-family="Times,serif" font-size="14.00" style="">Legend</text>
</g>
<!-- ORMakerV1Factory.initialize -->
<g id="node1" class="node" pointer-events="visible" data-name="ORMakerV1Factory.initialize">

<ellipse fill="#ffbdb9" stroke="#ffbdb9" stroke-width="3" cx="102.13" cy="-281" rx="44.64" ry="18" style=""/>
<text text-anchor="middle" x="102.13" y="-276.8" font-family="Times,serif" font-size="14.00" style="">initialize</text>
</g>
<!-- ORMakerV1Factory.__Ownable_init -->
<g id="node5" class="node" pointer-events="visible" data-name="ORMakerV1Factory.__Ownable_init">

<ellipse fill="#edad56" stroke="#edad56" stroke-width="3" cx="329.15" cy="-281" rx="73.02" ry="18" style=""/>
<text text-anchor="middle" x="329.15" y="-276.8" font-family="Times,serif" font-size="14.00" style="">__Ownable_init</text>
</g>
<!-- ORMakerV1Factory.initialize&#45;&gt;ORMakerV1Factory.__Ownable_init -->
<g id="edge1" class="edge" data-name="ORMakerV1Factory.initialize-&gt;ORMakerV1Factory.__Ownable_init">

<path fill="none" stroke="#1bc6a6" stroke-width="2" d="M148.12,-281C174.95,-281 209.91,-281 241.88,-281" style=""/>
<polygon fill="#1bc6a6" stroke="#1bc6a6" stroke-width="2" points="241.86,-284.5 251.86,-281 241.86,-277.5 241.86,-284.5" style=""/>
</g>
<!-- ORMakerV1Factory.IORManager -->
<g id="node6" class="node" pointer-events="visible" data-name="ORMakerV1Factory.IORManager">

<ellipse fill="#edad56" stroke="#edad56" stroke-width="3" cx="329.15" cy="-227" rx="61.97" ry="18" style=""/>
<text text-anchor="middle" x="329.15" y="-222.8" font-family="Times,serif" font-size="14.00" style="">IORManager</text>
</g>
<!-- ORMakerV1Factory.initialize&#45;&gt;ORMakerV1Factory.IORManager -->
<g id="edge2" class="edge" data-name="ORMakerV1Factory.initialize-&gt;ORMakerV1Factory.IORManager">

<path fill="none" stroke="#1bc6a6" stroke-width="2" d="M142.32,-271.59C176.53,-263.39 226.73,-251.34 266.34,-241.83" style=""/>
<polygon fill="#1bc6a6" stroke="#1bc6a6" stroke-width="2" points="266.95,-245.29 275.85,-239.55 265.31,-238.48 266.95,-245.29" style=""/>
</g>
<!-- ORMakerV1Factory.setManager -->
<g id="node2" class="node" pointer-events="visible" data-name="ORMakerV1Factory.setManager">

<ellipse fill="#ffbdb9" stroke="#ffbdb9" stroke-width="3" cx="102.13" cy="-227" rx="56.16" ry="18" style=""/>
<text text-anchor="middle" x="102.13" y="-222.8" font-family="Times,serif" font-size="14.00" style="">setManager</text>
</g>
<!-- ORMakerV1Factory.setManager&#45;&gt;ORMakerV1Factory.IORManager -->
<g id="edge3" class="edge" data-name="ORMakerV1Factory.setManager-&gt;ORMakerV1Factory.IORManager">

<path fill="none" stroke="#1bc6a6" stroke-width="2" d="M159.62,-227C187.87,-227 222.45,-227 252.92,-227" style=""/>
<polygon fill="#1bc6a6" stroke="#1bc6a6" stroke-width="2" points="252.66,-230.5 262.66,-227 252.66,-223.5 252.66,-230.5" style=""/>
</g>
<!-- ORMakerV1Factory.setMakerMaxLimit -->
<g id="node3" class="node" pointer-events="visible" data-name="ORMakerV1Factory.setMakerMaxLimit">

<ellipse fill="#ffbdb9" stroke="#ffbdb9" stroke-width="3" cx="102.13" cy="-173" rx="86.26" ry="18" style=""/>
<text text-anchor="middle" x="102.13" y="-168.8" font-family="Times,serif" font-size="14.00" style="">setMakerMaxLimit</text>
</g>
<!-- ORMakerV1Factory.ChangeMakerMaxLimit -->
<g id="node7" class="node" pointer-events="visible" data-name="ORMakerV1Factory.ChangeMakerMaxLimit">

<ellipse fill="#edad56" stroke="#edad56" stroke-width="3" cx="329.15" cy="-173" rx="104.8" ry="18" style=""/>
<text text-anchor="middle" x="329.15" y="-168.8" font-family="Times,serif" font-size="14.00" style="">ChangeMakerMaxLimit</text>
</g>
<!-- ORMakerV1Factory.setMakerMaxLimit&#45;&gt;ORMakerV1Factory.ChangeMakerMaxLimit -->
<g id="edge4" class="edge" data-name="ORMakerV1Factory.setMakerMaxLimit-&gt;ORMakerV1Factory.ChangeMakerMaxLimit">

<path fill="none" stroke="#1bc6a6" stroke-width="2" d="M189.81,-173C196.53,-173 203.39,-173 210.27,-173" style=""/>
<polygon fill="#1bc6a6" stroke="#1bc6a6" stroke-width="2" points="210.05,-176.5 220.05,-173 210.05,-169.5 210.05,-176.5" style=""/>
</g>
<!-- ORMakerV1Factory.createMaker -->
<g id="node4" class="node" pointer-events="visible" data-name="ORMakerV1Factory.createMaker">

<ellipse fill="#ffbdb9" stroke="#ffbdb9" stroke-width="3" cx="102.13" cy="-119" rx="59.07" ry="18" style=""/>
<text text-anchor="middle" x="102.13" y="-114.8" font-family="Times,serif" font-size="14.00" style="">createMaker</text>
</g>
<!-- ORMakerV1Factory.MakerCreated -->
<g id="node8" class="node" pointer-events="visible" data-name="ORMakerV1Factory.MakerCreated">

<ellipse fill="#edad56" stroke="#edad56" stroke-width="3" cx="329.15" cy="-119" rx="66.03" ry="18" style=""/>
<text text-anchor="middle" x="329.15" y="-114.8" font-family="Times,serif" font-size="14.00" style="">MakerCreated</text>
</g>
<!-- ORMakerV1Factory.createMaker&#45;&gt;ORMakerV1Factory.MakerCreated -->
<g id="edge5" class="edge" data-name="ORMakerV1Factory.createMaker-&gt;ORMakerV1Factory.MakerCreated">

<path fill="none" stroke="#1bc6a6" stroke-width="2" d="M162.55,-119C188.97,-119 220.46,-119 248.85,-119" style=""/>
<polygon fill="#1bc6a6" stroke="#1bc6a6" stroke-width="2" points="248.62,-122.5 258.62,-119 248.62,-115.5 248.62,-122.5" style=""/>
</g>
<!-- ORMakerDeposit.initialize -->
<g id="node9" class="node" pointer-events="visible" data-name="ORMakerDeposit.initialize">

<ellipse fill="#edad56" stroke="#edad56" stroke-width="3" cx="329.15" cy="-34" rx="44.64" ry="18" style=""/>
<text text-anchor="middle" x="329.15" y="-29.8" font-family="Times,serif" font-size="14.00" style="">initialize</text>
</g>
<!-- ORMakerV1Factory.createMaker&#45;&gt;ORMakerDeposit.initialize -->
<g id="edge6" class="edge" data-name="ORMakerV1Factory.createMaker-&gt;ORMakerDeposit.initialize">

<path fill="none" stroke="white" stroke-width="2" d="M141.81,-104.39C180.84,-89.64 241.1,-66.88 282.46,-51.26" style=""/>
<polygon fill="white" stroke="white" stroke-width="2" points="283.43,-54.64 291.55,-47.83 280.96,-48.09 283.43,-54.64" style=""/>
</g>
<!-- key -->
<g id="node10" class="node" pointer-events="visible" data-name="key">

<polygon fill="#edad56" stroke="none" stroke-width="3" points="167.13,-436 37.13,-436 37.13,-348 167.13,-348 167.13,-436" style=""/>
<text text-anchor="start" x="86.77" y="-417.4" font-family="Times,serif" font-size="14.00" style="">Internal Call</text>
<text text-anchor="start" x="82.88" y="-397.4" font-family="Times,serif" font-size="14.00" style="">External Call</text>
<text text-anchor="start" x="60.33" y="-377.4" font-family="Times,serif" font-size="14.00" style="">Defined Contract</text>
<text text-anchor="start" x="46.73" y="-357.4" font-family="Times,serif" font-size="14.00" style="">Undefined Contract</text>
</g>
<!-- key2 -->
<g id="node11" class="node" pointer-events="visible" data-name="key2">

<polygon fill="#edad56" stroke="none" stroke-width="3" points="356.15,-436 302.15,-436 302.15,-348 356.15,-348 356.15,-436" style=""/>
<text text-anchor="start" x="319.15" y="-417.4" font-family="Times,serif" font-size="14.00" style="">   </text>
<text text-anchor="start" x="319.15" y="-397.4" font-family="Times,serif" font-size="14.00" style="">   </text>
<polygon fill="#445773" stroke="none" points="317.15,-372 317.15,-392 342.15,-392 342.15,-372 317.15,-372" style=""/>
<text text-anchor="start" x="319.15" y="-377.4" font-family="Times,serif" font-size="14.00" style="">   </text>
<polygon fill="none" stroke="#e8726d" points="319.15,-354 319.15,-370 340.15,-370 340.15,-354 319.15,-354" style=""/>
</g>
<!-- key&#45;&gt;key2 -->
<g id="edge7" class="edge" data-name="key-&gt;key2">

<path fill="none" stroke="#1bc6a6" stroke-width="2" d="M160.13,-422C225,-422 244.36,-422 303.37,-422" style=""/>
<polygon fill="#1bc6a6" stroke="#1bc6a6" stroke-width="2" points="303.13,-425.5 313.13,-422 303.13,-418.5 303.13,-425.5" style=""/>
</g>
<!-- key&#45;&gt;key2 -->
<g id="edge8" class="edge" data-name="key-&gt;key2">

<path fill="none" stroke="white" stroke-width="2" d="M160.13,-402C225,-402 244.36,-402 303.37,-402" style=""/>
<polygon fill="white" stroke="white" stroke-width="2" points="303.13,-405.5 313.13,-402 303.13,-398.5 303.13,-405.5" style=""/>
</g>
</g>
</svg>