<?xml version="1.0" standalone="no"?>
<svg xmlns="http://www.w3.org/2000/svg" xmlns:xlink="http://www.w3.org/1999/xlink" width="608pt" height="863pt" viewBox="0.00 0.00 608.26 863.00">
<g id="graph0" class="graph" transform="translate(4,859) scale(1)" data-name="G">

<polygon fill="#2e3e56" stroke="none" points="-4,4 -4,-859 604.26,-859 604.26,4 -4,4" style=""/>
<g id="clust1" class="cluster" data-name="clusterORProtocalV1">

<path fill="#445773" stroke="#445773" d="M20,-147C20,-147 580.26,-147 580.26,-147 586.26,-147 592.26,-153 592.26,-159 592.26,-159 592.26,-698 592.26,-698 592.26,-704 586.26,-710 580.26,-710 580.26,-710 20,-710 20,-710 14,-710 8,-704 8,-698 8,-698 8,-159 8,-159 8,-153 14,-147 20,-147" style=""/>
<text text-anchor="middle" x="300.13" y="-693.4" font-family="Times,serif" font-size="14.00" fill="#f0f0f0" style="">ORProtocalV1</text>
</g>
<g id="clust2" class="cluster" data-name="clusterIORManager">

<path fill="#3b4b63" stroke="#e8726d" stroke-dasharray="5,2" d="M399.91,-8C399.91,-8 483.71,-8 483.71,-8 489.71,-8 495.71,-14 495.71,-20 495.71,-20 495.71,-127 495.71,-127 495.71,-133 489.71,-139 483.71,-139 483.71,-139 399.91,-139 399.91,-139 393.91,-139 387.91,-133 387.91,-127 387.91,-127 387.91,-20 387.91,-20 387.91,-14 393.91,-8 399.91,-8" style=""/>
<text text-anchor="middle" x="441.81" y="-122.4" font-family="Times,serif" font-size="14.00" fill="#f0f0f0" style="">IORManager</text>
</g>
<g id="clust3" class="cluster" data-name="cluster_01">

<polygon fill="#2e3e56" stroke="black" points="66.68,-718 66.68,-847 476.81,-847 476.81,-718 66.68,-718" style=""/>
<text text-anchor="middle" x="271.75" y="-830.4" font-family="Times,serif" font-size="14.00" style="">Legend</text>
</g>
<!-- ORProtocalV1.initialize -->
<g id="node1" class="node" pointer-events="visible" data-name="ORProtocalV1.initialize">

<ellipse fill="#ffbdb9" stroke="#ffbdb9" stroke-width="3" cx="139.68" cy="-659" rx="44.64" ry="18" style=""/>
<text text-anchor="middle" x="139.68" y="-654.8" font-family="Times,serif" font-size="14.00" style="">initialize</text>
</g>
<!-- ORProtocalV1.IORManager -->
<g id="node12" class="node" pointer-events="visible" data-name="ORProtocalV1.IORManager">

<ellipse fill="#edad56" stroke="#edad56" stroke-width="3" cx="441.81" cy="-605" rx="61.97" ry="18" style=""/>
<text text-anchor="middle" x="441.81" y="-600.8" font-family="Times,serif" font-size="14.00" style="">IORManager</text>
</g>
<!-- ORProtocalV1.initialize&#45;&gt;ORProtocalV1.IORManager -->
<g id="edge1" class="edge" data-name="ORProtocalV1.initialize-&gt;ORProtocalV1.IORManager">

<path fill="none" stroke="#1bc6a6" stroke-width="2" d="M182.1,-651.55C231.76,-642.61 315.64,-627.52 374.39,-616.95" style=""/>
<polygon fill="#1bc6a6" stroke="#1bc6a6" stroke-width="2" points="374.7,-620.45 383.92,-615.24 373.46,-613.56 374.7,-620.45" style=""/>
</g>
<!-- ORProtocalV1.__Ownable_init -->
<g id="node13" class="node" pointer-events="visible" data-name="ORProtocalV1.__Ownable_init">

<ellipse fill="#edad56" stroke="#edad56" stroke-width="3" cx="441.81" cy="-659" rx="73.02" ry="18" style=""/>
<text text-anchor="middle" x="441.81" y="-654.8" font-family="Times,serif" font-size="14.00" style="">__Ownable_init</text>
</g>
<!-- ORProtocalV1.initialize&#45;&gt;ORProtocalV1.__Ownable_init -->
<g id="edge2" class="edge" data-name="ORProtocalV1.initialize-&gt;ORProtocalV1.__Ownable_init">

<path fill="none" stroke="#1bc6a6" stroke-width="2" d="M185.61,-659C230.12,-659 299.43,-659 354.59,-659" style=""/>
<polygon fill="#1bc6a6" stroke="#1bc6a6" stroke-width="2" points="354.54,-662.5 364.54,-659 354.54,-655.5 354.54,-662.5" style=""/>
</g>
<!-- ORProtocalV1.setChallengePledgedAmount -->
<g id="node2" class="node" pointer-events="visible" data-name="ORProtocalV1.setChallengePledgedAmount">

<ellipse fill="#ffbdb9" stroke="#ffbdb9" stroke-width="3" cx="139.68" cy="-605" rx="123.86" ry="18" style=""/>
<text text-anchor="middle" x="139.68" y="-600.8" font-family="Times,serif" font-size="14.00" style="">setChallengePledgedAmount</text>
</g>
<!-- ORProtocalV1.ChangeChallengePledgedAmount -->
<g id="node14" class="node" pointer-events="visible" data-name="ORProtocalV1.ChangeChallengePledgedAmount">

<ellipse fill="#edad56" stroke="#edad56" stroke-width="3" cx="441.81" cy="-551" rx="142.4" ry="18" style=""/>
<text text-anchor="middle" x="441.81" y="-546.8" font-family="Times,serif" font-size="14.00" style="">ChangeChallengePledgedAmount</text>
</g>
<!-- ORProtocalV1.setChallengePledgedAmount&#45;&gt;ORProtocalV1.ChangeChallengePledgedAmount -->
<g id="edge3" class="edge" data-name="ORProtocalV1.setChallengePledgedAmount-&gt;ORProtocalV1.ChangeChallengePledgedAmount">

<path fill="none" stroke="#1bc6a6" stroke-width="2" d="M221.9,-590.39C258.95,-583.72 303.14,-575.77 342.09,-568.76" style=""/>
<polygon fill="#1bc6a6" stroke="#1bc6a6" stroke-width="2" points="342.6,-572.23 351.82,-567.01 341.36,-565.34 342.6,-572.23" style=""/>
</g>
<!-- ORProtocalV1.setPledgeAmountSafeRate -->
<g id="node3" class="node" pointer-events="visible" data-name="ORProtocalV1.setPledgeAmountSafeRate">

<ellipse fill="#ffbdb9" stroke="#ffbdb9" stroke-width="3" cx="139.68" cy="-551" rx="114.61" ry="18" style=""/>
<text text-anchor="middle" x="139.68" y="-546.8" font-family="Times,serif" font-size="14.00" style="">setPledgeAmountSafeRate</text>
</g>
<!-- ORProtocalV1.ChangePledgeAmountSafeRate -->
<g id="node15" class="node" pointer-events="visible" data-name="ORProtocalV1.ChangePledgeAmountSafeRate">

<ellipse fill="#edad56" stroke="#edad56" stroke-width="3" cx="441.81" cy="-497" rx="133.16" ry="18" style=""/>
<text text-anchor="middle" x="441.81" y="-492.8" font-family="Times,serif" font-size="14.00" style="">ChangePledgeAmountSafeRate</text>
</g>
<!-- ORProtocalV1.setPledgeAmountSafeRate&#45;&gt;ORProtocalV1.ChangePledgeAmountSafeRate -->
<g id="edge4" class="edge" data-name="ORProtocalV1.setPledgeAmountSafeRate-&gt;ORProtocalV1.ChangePledgeAmountSafeRate">

<path fill="none" stroke="#1bc6a6" stroke-width="2" d="M219.14,-536.88C257.47,-529.99 303.93,-521.63 344.4,-514.35" style=""/>
<polygon fill="#1bc6a6" stroke="#1bc6a6" stroke-width="2" points="344.82,-517.83 354.05,-512.61 343.58,-510.94 344.82,-517.83" style=""/>
</g>
<!-- ORProtocalV1.setMainCoinPunishRate -->
<g id="node4" class="node" pointer-events="visible" data-name="ORProtocalV1.setMainCoinPunishRate">

<ellipse fill="#ffbdb9" stroke="#ffbdb9" stroke-width="3" cx="139.68" cy="-497" rx="104.85" ry="18" style=""/>
<text text-anchor="middle" x="139.68" y="-492.8" font-family="Times,serif" font-size="14.00" style="">setMainCoinPunishRate</text>
</g>
<!-- ORProtocalV1.setTokenPunishRate -->
<g id="node5" class="node" pointer-events="visible" data-name="ORProtocalV1.setTokenPunishRate">

<ellipse fill="#ffbdb9" stroke="#ffbdb9" stroke-width="3" cx="139.68" cy="-443" rx="90.36" ry="18" style=""/>
<text text-anchor="middle" x="139.68" y="-438.8" font-family="Times,serif" font-size="14.00" style="">setTokenPunishRate</text>
</g>
<!-- ORProtocalV1.getPledgeAmount -->
<g id="node6" class="node" pointer-events="visible" data-name="ORProtocalV1.getPledgeAmount">

<ellipse fill="#ffbdb9" stroke="#ffbdb9" stroke-width="3" cx="139.68" cy="-389" rx="80.54" ry="18" style=""/>
<text text-anchor="middle" x="139.68" y="-384.8" font-family="Times,serif" font-size="14.00" style="">getPledgeAmount</text>
</g>
<!-- ORProtocalV1.calculateCompensation -->
<g id="node7" class="node" pointer-events="visible" data-name="ORProtocalV1.calculateCompensation">

<ellipse fill="#ffbdb9" stroke="#ffbdb9" stroke-width="3" cx="139.68" cy="-335" rx="101.27" ry="18" style=""/>
<text text-anchor="middle" x="139.68" y="-330.8" font-family="Times,serif" font-size="14.00" style="">calculateCompensation</text>
</g>
<!-- ORProtocalV1.getSecuirtyCode -->
<g id="node8" class="node" pointer-events="visible" data-name="ORProtocalV1.getSecuirtyCode">

<ellipse fill="#edad56" stroke="#edad56" stroke-width="3" cx="441.81" cy="-281" rx="75.3" ry="18" style=""/>
<text text-anchor="middle" x="441.81" y="-276.8" font-family="Times,serif" font-size="14.00" style="">getSecuirtyCode</text>
</g>
<!-- ORProtocalV1.getRespnseHash -->
<g id="node9" class="node" pointer-events="visible" data-name="ORProtocalV1.getRespnseHash">

<ellipse fill="#ffbdb9" stroke="#ffbdb9" stroke-width="3" cx="139.68" cy="-281" rx="74.74" ry="18" style=""/>
<text text-anchor="middle" x="139.68" y="-276.8" font-family="Times,serif" font-size="14.00" style="">getRespnseHash</text>
</g>
<!-- ORProtocalV1.getRespnseHash&#45;&gt;ORProtocalV1.getSecuirtyCode -->
<g id="edge5" class="edge" data-name="ORProtocalV1.getRespnseHash-&gt;ORProtocalV1.getSecuirtyCode">

<path fill="none" stroke="#1bc6a6" stroke-width="2" d="M212.19,-275.15C255.36,-274.06 310.62,-273.96 355.99,-274.85" style=""/>
<polygon fill="#1bc6a6" stroke="#1bc6a6" stroke-width="2" points="355.71,-278.35 365.79,-275.07 355.87,-271.35 355.71,-278.35" style=""/>
</g>
<!-- ORProtocalV1.getRespnseHash&#45;&gt;ORProtocalV1.getSecuirtyCode -->
<g id="edge6" class="edge" data-name="ORProtocalV1.getRespnseHash-&gt;ORProtocalV1.getSecuirtyCode">

<path fill="none" stroke="#1bc6a6" stroke-width="2" d="M212.19,-286.85C255.36,-287.94 310.62,-288.04 355.99,-287.15" style=""/>
<polygon fill="#1bc6a6" stroke="#1bc6a6" stroke-width="2" points="355.87,-290.65 365.79,-286.93 355.71,-283.65 355.87,-290.65" style=""/>
</g>
<!-- ORProtocalV1.checkUserChallenge -->
<g id="node10" class="node" pointer-events="visible" data-name="ORProtocalV1.checkUserChallenge">

<ellipse fill="#ffbdb9" stroke="#ffbdb9" stroke-width="3" cx="139.68" cy="-227" rx="90.87" ry="18" style=""/>
<text text-anchor="middle" x="139.68" y="-222.8" font-family="Times,serif" font-size="14.00" style="">checkUserChallenge</text>
</g>
<!-- ORProtocalV1.IORSpv -->
<g id="node16" class="node" pointer-events="visible" data-name="ORProtocalV1.IORSpv">

<ellipse fill="#edad56" stroke="#edad56" stroke-width="3" cx="441.81" cy="-200" rx="42.89" ry="18" style=""/>
<text text-anchor="middle" x="441.81" y="-195.8" font-family="Times,serif" font-size="14.00" style="">IORSpv</text>
</g>
<!-- ORProtocalV1.checkUserChallenge&#45;&gt;ORProtocalV1.IORSpv -->
<g id="edge8" class="edge" data-name="ORProtocalV1.checkUserChallenge-&gt;ORProtocalV1.IORSpv">

<path fill="none" stroke="#1bc6a6" stroke-width="2" d="M224.68,-219.44C276.14,-214.81 340.54,-209.02 385.6,-204.97" style=""/>
<polygon fill="#1bc6a6" stroke="#1bc6a6" stroke-width="2" points="385.69,-208.47 395.33,-204.09 385.06,-201.5 385.69,-208.47" style=""/>
</g>
<!-- IORManager.getSPV -->
<g id="node17" class="node" pointer-events="visible" data-name="IORManager.getSPV">

<ellipse fill="#edad56" stroke="#edad56" stroke-width="3" cx="441.81" cy="-88" rx="40.6" ry="18" style=""/>
<text text-anchor="middle" x="441.81" y="-83.8" font-family="Times,serif" font-size="14.00" style="">getSPV</text>
</g>
<!-- ORProtocalV1.checkUserChallenge&#45;&gt;IORManager.getSPV -->
<g id="edge7" class="edge" data-name="ORProtocalV1.checkUserChallenge-&gt;IORManager.getSPV">

<path fill="none" stroke="white" stroke-width="2" d="M222.35,-218.49C236.88,-214.42 251.22,-208.52 263.36,-200 287.88,-182.78 276.24,-162.05 299.36,-143 325.75,-121.25 361.75,-107.42 390.82,-99.07" style=""/>
<polygon fill="white" stroke="white" stroke-width="2" points="391.56,-102.49 400.29,-96.5 389.73,-95.74 391.56,-102.49" style=""/>
</g>
<!-- ORProtocalV1.checkMakerChallenge -->
<g id="node11" class="node" pointer-events="visible" data-name="ORProtocalV1.checkMakerChallenge">

<ellipse fill="#ffbdb9" stroke="#ffbdb9" stroke-width="3" cx="139.68" cy="-173" rx="97.81" ry="18" style=""/>
<text text-anchor="middle" x="139.68" y="-168.8" font-family="Times,serif" font-size="14.00" style="">checkMakerChallenge</text>
</g>
<!-- ORProtocalV1.checkMakerChallenge&#45;&gt;ORProtocalV1.IORSpv -->
<g id="edge10" class="edge" data-name="ORProtocalV1.checkMakerChallenge-&gt;ORProtocalV1.IORSpv">

<path fill="none" stroke="#1bc6a6" stroke-width="2" d="M229.92,-181.03C280.5,-185.58 342.18,-191.13 385.73,-195.04" style=""/>
<polygon fill="#1bc6a6" stroke="#1bc6a6" stroke-width="2" points="385.34,-198.52 395.62,-195.93 385.97,-191.55 385.34,-198.52" style=""/>
</g>
<!-- ORProtocalV1.checkMakerChallenge&#45;&gt;IORManager.getSPV -->
<g id="edge9" class="edge" data-name="ORProtocalV1.checkMakerChallenge-&gt;IORManager.getSPV">

<path fill="none" stroke="white" stroke-width="2" d="M196.78,-157.11C253.37,-141.09 339.77,-116.62 393.15,-101.5" style=""/>
<polygon fill="white" stroke="white" stroke-width="2" points="394.06,-104.88 402.73,-98.79 392.15,-98.14 394.06,-104.88" style=""/>
</g>
<!-- IORManager.getChain -->
<g id="node18" class="node" pointer-events="visible" data-name="IORManager.getChain">

<ellipse fill="#edad56" stroke="#edad56" stroke-width="3" cx="441.81" cy="-34" rx="45.8" ry="18" style=""/>
<text text-anchor="middle" x="441.81" y="-29.8" font-family="Times,serif" font-size="14.00" style="">getChain</text>
</g>
<!-- ORProtocalV1.checkMakerChallenge&#45;&gt;IORManager.getChain -->
<g id="edge11" class="edge" data-name="ORProtocalV1.checkMakerChallenge-&gt;IORManager.getChain">

<path fill="none" stroke="white" stroke-width="2" d="M160.99,-154.25C189.6,-128.94 244.43,-84.33 299.36,-61 325.54,-49.88 356.39,-43.31 382.59,-39.44" style=""/>
<polygon fill="white" stroke="white" stroke-width="2" points="382.98,-42.92 392.43,-38.11 382.05,-35.99 382.98,-42.92" style=""/>
</g>
<!-- key -->
<g id="node19" class="node" pointer-events="visible" data-name="key">

<polygon fill="#edad56" stroke="none" stroke-width="3" points="204.68,-814 74.68,-814 74.68,-726 204.68,-726 204.68,-814" style=""/>
<text text-anchor="start" x="124.32" y="-795.4" font-family="Times,serif" font-size="14.00" style="">Internal Call</text>
<text text-anchor="start" x="120.43" y="-775.4" font-family="Times,serif" font-size="14.00" style="">External Call</text>
<text text-anchor="start" x="97.88" y="-755.4" font-family="Times,serif" font-size="14.00" style="">Defined Contract</text>
<text text-anchor="start" x="84.28" y="-735.4" font-family="Times,serif" font-size="14.00" style="">Undefined Contract</text>
</g>
<!-- key2 -->
<g id="node20" class="node" pointer-events="visible" data-name="key2">

<polygon fill="#edad56" stroke="none" stroke-width="3" points="468.81,-814 414.81,-814 414.81,-726 468.81,-726 468.81,-814" style=""/>
<text text-anchor="start" x="431.81" y="-795.4" font-family="Times,serif" font-size="14.00" style="">   </text>
<text text-anchor="start" x="431.81" y="-775.4" font-family="Times,serif" font-size="14.00" style="">   </text>
<polygon fill="#445773" stroke="none" points="429.81,-750 429.81,-770 454.81,-770 454.81,-750 429.81,-750" style=""/>
<text text-anchor="start" x="431.81" y="-755.4" font-family="Times,serif" font-size="14.00" style="">   </text>
<polygon fill="none" stroke="#e8726d" points="431.81,-732 431.81,-748 452.81,-748 452.81,-732 431.81,-732" style=""/>
</g>
<!-- key&#45;&gt;key2 -->
<g id="edge12" class="edge" data-name="key-&gt;key2">

<path fill="none" stroke="#1bc6a6" stroke-width="2" d="M197.68,-800C295.99,-800 323.74,-800 415.99,-800" style=""/>
<polygon fill="#1bc6a6" stroke="#1bc6a6" stroke-width="2" points="415.79,-803.5 425.79,-800 415.79,-796.5 415.79,-803.5" style=""/>
</g>
<!-- key&#45;&gt;key2 -->
<g id="edge13" class="edge" data-name="key-&gt;key2">

<path fill="none" stroke="white" stroke-width="2" d="M197.68,-780C295.99,-780 323.74,-780 415.99,-780" style=""/>
<polygon fill="white" stroke="white" stroke-width="2" points="415.79,-783.5 425.79,-780 415.79,-776.5 415.79,-783.5" style=""/>
</g>
</g>
</svg>