<?xml version="1.0" standalone="no"?>
<svg xmlns="http://www.w3.org/2000/svg" xmlns:xlink="http://www.w3.org/1999/xlink" width="411pt" height="454pt" viewBox="0.00 0.00 410.84 454.00">
<g id="graph0" class="graph" transform="translate(54.40248839868528,355.8191396340266) scale(0.7474246243174704)" data-name="G">

<polygon fill="#2e3e56" stroke="none" points="-4,4 -4,-450 406.84,-450 406.84,4 -4,4" style=""/>
<g id="clust1" class="cluster" data-name="clusterORSpv">

<path fill="#445773" stroke="#445773" d="M20,-8C20,-8 382.84,-8 382.84,-8 388.84,-8 394.84,-14 394.84,-20 394.84,-20 394.84,-289 394.84,-289 394.84,-295 388.84,-301 382.84,-301 382.84,-301 20,-301 20,-301 14,-301 8,-295 8,-289 8,-289 8,-20 8,-20 8,-14 14,-8 20,-8" style=""/>
<text text-anchor="middle" x="201.42" y="-284.4" font-family="Times,serif" font-size="14.00" fill="#f0f0f0" style="">ORSpv</text>
</g>
<g id="clust2" class="cluster" data-name="cluster_01">

<polygon fill="#2e3e56" stroke="black" points="37.16,-309 37.16,-438 348.58,-438 348.58,-309 37.16,-309" style=""/>
<text text-anchor="middle" x="192.87" y="-421.4" font-family="Times,serif" font-size="14.00" style="">Legend</text>
</g>
<!-- ORSpv.initialize -->
<g id="node1" class="node" pointer-events="visible" data-name="ORSpv.initialize">

<ellipse fill="#ffbdb9" stroke="#ffbdb9" stroke-width="3" cx="110.16" cy="-250" rx="44.64" ry="18" style=""/>
<text text-anchor="middle" x="110.16" y="-245.8" font-family="Times,serif" font-size="14.00" style="">initialize</text>
</g>
<!-- ORSpv.__Ownable_init -->
<g id="node8" class="node" pointer-events="visible" data-name="ORSpv.__Ownable_init">

<ellipse fill="#edad56" stroke="#edad56" stroke-width="3" cx="313.58" cy="-250" rx="73.02" ry="18" style=""/>
<text text-anchor="middle" x="313.58" y="-245.8" font-family="Times,serif" font-size="14.00" style="">__Ownable_init</text>
</g>
<!-- ORSpv.initialize&#45;&gt;ORSpv.__Ownable_init -->
<g id="edge1" class="edge" data-name="ORSpv.initialize-&gt;ORSpv.__Ownable_init">

<path fill="none" stroke="#1bc6a6" stroke-width="2" d="M156.12,-250C176.85,-250 202.2,-250 226.4,-250" style=""/>
<polygon fill="#1bc6a6" stroke="#1bc6a6" stroke-width="2" points="226.27,-253.5 236.27,-250 226.27,-246.5 226.27,-253.5" style=""/>
</g>
<!-- ORSpv.setUserTxTreeRoot -->
<g id="node2" class="node" pointer-events="visible" data-name="ORSpv.setUserTxTreeRoot">

<ellipse fill="#ffbdb9" stroke="#ffbdb9" stroke-width="3" cx="110.16" cy="-196" rx="87.39" ry="18" style=""/>
<text text-anchor="middle" x="110.16" y="-191.8" font-family="Times,serif" font-size="14.00" style="">setUserTxTreeRoot</text>
</g>
<!-- ORSpv.setMakerTxTreeRoot -->
<g id="node3" class="node" pointer-events="visible" data-name="ORSpv.setMakerTxTreeRoot">

<ellipse fill="#ffbdb9" stroke="#ffbdb9" stroke-width="3" cx="110.16" cy="-142" rx="94.33" ry="18" style=""/>
<text text-anchor="middle" x="110.16" y="-137.8" font-family="Times,serif" font-size="14.00" style="">setMakerTxTreeRoot</text>
</g>
<!-- ORSpv.getSpvTxId -->
<g id="node4" class="node" pointer-events="visible" data-name="ORSpv.getSpvTxId">

<ellipse fill="#edad56" stroke="#edad56" stroke-width="3" cx="313.58" cy="-34" rx="56.77" ry="18" style=""/>
<text text-anchor="middle" x="313.58" y="-29.8" font-family="Times,serif" font-size="14.00" style="">getSpvTxId</text>
</g>
<!-- ORSpv.verifyUserTxProof -->
<g id="node5" class="node" pointer-events="visible" data-name="ORSpv.verifyUserTxProof">

<ellipse fill="#ff9797" stroke="#ff9797" stroke-width="3" cx="110.16" cy="-88" rx="84.53" ry="18" style=""/>
<text text-anchor="middle" x="110.16" y="-83.8" font-family="Times,serif" font-size="14.00" style="">verifyUserTxProof</text>
</g>
<!-- ORSpv.verifyUserTxProof&#45;&gt;ORSpv.getSpvTxId -->
<g id="edge2" class="edge" data-name="ORSpv.verifyUserTxProof-&gt;ORSpv.getSpvTxId">

<path fill="none" stroke="#1bc6a6" stroke-width="2" d="M166.2,-73.24C193.88,-65.82 227.39,-56.84 255.37,-49.34" style=""/>
<polygon fill="#1bc6a6" stroke="#1bc6a6" stroke-width="2" points="256.11,-52.76 264.87,-46.79 254.3,-46 256.11,-52.76" style=""/>
</g>
<!-- ORSpv.verify -->
<g id="node7" class="node" pointer-events="visible" data-name="ORSpv.verify">

<ellipse fill="#edad56" stroke="#edad56" stroke-width="3" cx="313.58" cy="-88" rx="34.19" ry="18" style=""/>
<text text-anchor="middle" x="313.58" y="-83.8" font-family="Times,serif" font-size="14.00" style="">verify</text>
</g>
<!-- ORSpv.verifyUserTxProof&#45;&gt;ORSpv.verify -->
<g id="edge3" class="edge" data-name="ORSpv.verifyUserTxProof-&gt;ORSpv.verify">

<path fill="none" stroke="#1bc6a6" stroke-width="2" d="M196,-88C219.64,-88 244.47,-88 265.11,-88" style=""/>
<polygon fill="#1bc6a6" stroke="#1bc6a6" stroke-width="2" points="264.99,-91.5 274.99,-88 264.99,-84.5 264.99,-91.5" style=""/>
</g>
<!-- ORSpv.verifyMakerTxProof -->
<g id="node6" class="node" pointer-events="visible" data-name="ORSpv.verifyMakerTxProof">

<ellipse fill="#ff9797" stroke="#ff9797" stroke-width="3" cx="110.16" cy="-34" rx="91.47" ry="18" style=""/>
<text text-anchor="middle" x="110.16" y="-29.8" font-family="Times,serif" font-size="14.00" style="">verifyMakerTxProof</text>
</g>
<!-- ORSpv.verifyMakerTxProof&#45;&gt;ORSpv.getSpvTxId -->
<g id="edge4" class="edge" data-name="ORSpv.verifyMakerTxProof-&gt;ORSpv.getSpvTxId">

<path fill="none" stroke="#1bc6a6" stroke-width="2" d="M203.03,-34C216.28,-34 229.73,-34 242.46,-34" style=""/>
<polygon fill="#1bc6a6" stroke="#1bc6a6" stroke-width="2" points="242.4,-37.5 252.4,-34 242.4,-30.5 242.4,-37.5" style=""/>
</g>
<!-- ORSpv.verifyMakerTxProof&#45;&gt;ORSpv.verify -->
<g id="edge5" class="edge" data-name="ORSpv.verifyMakerTxProof-&gt;ORSpv.verify">

<path fill="none" stroke="#1bc6a6" stroke-width="2" d="M167.81,-49.19C199.94,-57.8 239.52,-68.41 269.18,-76.36" style=""/>
<polygon fill="#1bc6a6" stroke="#1bc6a6" stroke-width="2" points="268.14,-79.71 278.71,-78.92 269.95,-72.95 268.14,-79.71" style=""/>
</g>
<!-- key -->
<g id="node9" class="node" pointer-events="visible" data-name="key">

<polygon fill="#edad56" stroke="none" stroke-width="3" points="175.16,-405 45.16,-405 45.16,-317 175.16,-317 175.16,-405" style=""/>
<text text-anchor="start" x="94.8" y="-386.4" font-family="Times,serif" font-size="14.00" style="">Internal Call</text>
<text text-anchor="start" x="90.91" y="-366.4" font-family="Times,serif" font-size="14.00" style="">External Call</text>
<text text-anchor="start" x="68.37" y="-346.4" font-family="Times,serif" font-size="14.00" style="">Defined Contract</text>
<text text-anchor="start" x="54.76" y="-326.4" font-family="Times,serif" font-size="14.00" style="">Undefined Contract</text>
</g>
<!-- key2 -->
<g id="node10" class="node" pointer-events="visible" data-name="key2">

<polygon fill="#edad56" stroke="none" stroke-width="3" points="340.58,-405 286.58,-405 286.58,-317 340.58,-317 340.58,-405" style=""/>
<text text-anchor="start" x="303.58" y="-386.4" font-family="Times,serif" font-size="14.00" style="">   </text>
<text text-anchor="start" x="303.58" y="-366.4" font-family="Times,serif" font-size="14.00" style="">   </text>
<polygon fill="#445773" stroke="none" points="301.58,-341 301.58,-361 326.58,-361 326.58,-341 301.58,-341" style=""/>
<text text-anchor="start" x="303.58" y="-346.4" font-family="Times,serif" font-size="14.00" style="">   </text>
<polygon fill="none" stroke="#e8726d" points="303.58,-323 303.58,-339 324.58,-339 324.58,-323 303.58,-323" style=""/>
</g>
<!-- key&#45;&gt;key2 -->
<g id="edge6" class="edge" data-name="key-&gt;key2">

<path fill="none" stroke="#1bc6a6" stroke-width="2" d="M168.16,-391C222.53,-391 239.23,-391 287.87,-391" style=""/>
<polygon fill="#1bc6a6" stroke="#1bc6a6" stroke-width="2" points="287.56,-394.5 297.56,-391 287.56,-387.5 287.56,-394.5" style=""/>
</g>
<!-- key&#45;&gt;key2 -->
<g id="edge7" class="edge" data-name="key-&gt;key2">

<path fill="none" stroke="white" stroke-width="2" d="M168.16,-371C222.53,-371 239.23,-371 287.87,-371" style=""/>
<polygon fill="white" stroke="white" stroke-width="2" points="287.56,-374.5 297.56,-371 287.56,-367.5 287.56,-374.5" style=""/>
</g>
</g>
</svg>